<?xml version="1.0" standalone="no"?>
<!DOCTYPE svg PUBLIC "-//W3C//DTD SVG 20010904//EN"
 "http://www.w3.org/TR/2001/REC-SVG-20010904/DTD/svg10.dtd">
<svg version="1.0" xmlns="http://www.w3.org/2000/svg"
 width="100.000000pt" height="100.000000pt" viewBox="0 0 100.000000 100.000000"
 preserveAspectRatio="xMidYMid meet">

<g transform="translate(0.000000,100.000000) scale(0.100000,-0.100000)"
fill="#000000" stroke="none">
<path d="M273 873 l-203 -115 0 -253 0 -253 204 -121 c113 -67 213 -121 224
-121 18 0 381 200 416 229 14 12 16 44 14 260 l-3 246 -205 123 c-112 67 -214
122 -225 121 -11 0 -111 -52 -222 -116z m291 -203 c19 -7 26 -17 26 -36 0 -23
-3 -25 -22 -19 -51 16 -84 17 -97 1 -22 -27 -7 -50 54 -83 32 -17 65 -39 72
-49 18 -24 16 -85 -2 -111 -21 -30 -78 -47 -133 -39 -54 7 -72 20 -72 52 0 27
14 30 50 9 35 -20 74 -18 94 4 28 31 15 54 -49 88 -32 17 -65 39 -72 49 -14
19 -17 71 -7 99 14 36 104 56 158 35z"/>
</g>
</svg>
